<svg xmlns="http://www.w3.org/2000/svg" viewBox="0 0 440 194"><defs><style>.cls-1{fill:#3c327f;}.cls-2{fill:#fff;}.cls-3{fill:#f7c76e;}</style></defs><g id="Laag_2" data-name="Laag 2"><g id="Laag_1-2" data-name="Laag 1"><polygon class="cls-1" points="440 182 0 160.78 0 24.21 440 0 440 182"/><polyline class="cls-1" points="28 194 28 128 123 105.23"/><path class="cls-2" d="M30.34,132.35a4.11,4.11,0,0,1-.65-2.3V52.82a4.14,4.14,0,0,1,.65-2.31,2,2,0,0,1,1.56-1l15.94-.74a1.84,1.84,0,0,1,1.61.9,3.77,3.77,0,0,1,.69,2.29V76.14L59.9,50.89c.69-1.84,1.86-2.81,3.5-2.88l19.83-.93a1.62,1.62,0,0,1,1.42.75,3.15,3.15,0,0,1,.6,1.94A3.62,3.62,0,0,1,85,51.18L68.69,89.55l17.84,42.17a3.1,3.1,0,0,1,.27,1.41,3.16,3.16,0,0,1-.6,2,1.66,1.66,0,0,1-1.42.76l-20.51-1a3.2,3.2,0,0,1-2.37-1,5.64,5.64,0,0,1-1.23-2L50.14,104.76v26.17a3.79,3.79,0,0,1-.69,2.29,1.84,1.84,0,0,1-1.61.9l-15.94-.74A2,2,0,0,1,30.34,132.35Z"/><path class="cls-2" d="M96.6,135.36a4.12,4.12,0,0,1-.76-2.48V50a4.11,4.11,0,0,1,.76-2.47,2.34,2.34,0,0,1,1.79-1.12l19.3-.9a2.18,2.18,0,0,1,1.87,1,3.89,3.89,0,0,1,.79,2.47V110.5l28.19.54a2.51,2.51,0,0,1,2,1.12,4.17,4.17,0,0,1,.84,2.6v20.5a3.91,3.91,0,0,1-.84,2.54,2.35,2.35,0,0,1-2,1l-50.15-2.33A2.28,2.28,0,0,1,96.6,135.36Z"/><path class="cls-2" d="M157.67,138.33a3.48,3.48,0,0,1-.69-2.15,3.82,3.82,0,0,1,.11-1L181.4,47.08a8,8,0,0,1,1.67-3.29,4.51,4.51,0,0,1,3.37-1.56l25-1.17A4.39,4.39,0,0,1,215,42.33a7.27,7.27,0,0,1,1.78,3.25l27.25,93.36a4.07,4.07,0,0,1,.12,1,3.32,3.32,0,0,1-.81,2.26,2.33,2.33,0,0,1-1.94.87l-22.6-1.05a4.75,4.75,0,0,1-4.65-3.82l-2.83-9.61-24.8-.85-2.69,9.15q-1,3.47-4.36,3.3l-20.16-.93A2.14,2.14,0,0,1,157.67,138.33Zm34.65-37.9,13,.11-6.6-26.49Z"/><path class="cls-2" d="M257.23,142.65a4.4,4.4,0,0,1-1-2.9l0-96.75a4.42,4.42,0,0,1,1-2.89,3.33,3.33,0,0,1,2.45-1.32l39.47-1.85c13.4-.63,24.09,2.28,31.91,8.81S343,61.83,343,74.09a38.37,38.37,0,0,1-4.3,18.47,36.61,36.61,0,0,1-11.54,13L345.2,142.6a4.4,4.4,0,0,1,.45,1.79,3.43,3.43,0,0,1-1,2.47,2.89,2.89,0,0,1-2.3.94l-29.69-1.38a6,6,0,0,1-4-1.52,7.67,7.67,0,0,1-2-3l-11.9-30.1-5.59-.1v29.45a4.18,4.18,0,0,1-1.09,2.88,3.2,3.2,0,0,1-2.57,1.11L259.67,144A3.29,3.29,0,0,1,257.23,142.65Zm41.92-60.3a5.59,5.59,0,0,0,4.72-2.3,9.46,9.46,0,0,0,1.67-5.73,11,11,0,0,0-1.6-6,5.12,5.12,0,0,0-4.78-2.47l-10,.22V82.43Z"/><path class="cls-3" d="M363.68,147.48a4.6,4.6,0,0,1-1.23-3.18V115.78a4.32,4.32,0,0,1,1.23-3.09,3.79,3.79,0,0,1,2.93-1.27l27.48.44a4.2,4.2,0,0,1,3.07,1.4,4.52,4.52,0,0,1,1.3,3.23v29.36a4.29,4.29,0,0,1-1.3,3.14,3.9,3.9,0,0,1-3.08,1.21l-27.47-1.28A4.06,4.06,0,0,1,363.68,147.48Zm0-44a4.46,4.46,0,0,1-1.22-3.13v-62a4.59,4.59,0,0,1,1.22-3.17,4.07,4.07,0,0,1,2.93-1.45l27.48-1.29a3.89,3.89,0,0,1,3.07,1.2,4.26,4.26,0,0,1,1.3,3.15v63.78a4.42,4.42,0,0,1-1.3,3.2,4,4,0,0,1-3.07,1.31l-27.48-.29A3.93,3.93,0,0,1,363.68,103.5Z"/></g></g></svg>