<?xml version="1.0" encoding="utf-8"?>
<svg xmlns="http://www.w3.org/2000/svg" enable-background="new 0 0 423.2 119.9" viewBox="0 0 423.2 119.9">
  <path d="m418.2 43.1c1.9 1.9 4.9.2 4.9-1.8v-34.4c0-2-1.6-3.6-3.6-3.6h-34.4c-2 0-3.8 2.9-1.9 4.8s33.1 33.1 35 35z" fill="#ed1c24"/>
  <path d="m0 6.5c0-1.5 1.2-2.7 2.8-2.7h15.2c1.5 0 2.8 1.2 2.8 2.7v33.4c0 1.5.6 1.7 1.4.4l20.2-34.2c.8-1.3 2.6-2.4 4.2-2.4h15.4c1.5 0 2.1 1 1.2 2.3l-20.6 29.6c-.9 1.2-1.1 3.4-.5 4.8l23.5 53.7c.6 1.4-.2 2.5-1.7 2.5h-15.8c-1.5 0-3.2-1.1-3.8-2.5l-14.7-37.8c-.5-1.4-1.7-1.5-2.6-.3l-4.7 6.7c-.9 1.2-1.6 3.5-1.6 5v26.1c0 1.5-1.3 2.7-2.8 2.7h-15.1c-1.5 0-2.8-1.2-2.8-2.7z"/>
  <path d="m69.5 6.5c0-1.5 1.3-2.7 2.8-2.7h13.9c1.5 0 2.8 1.2 2.8 2.7v87.4c0 1.5-1.3 2.7-2.8 2.7h-13.9c-1.5 0-2.8-1.2-2.8-2.7z"/>
  <path d="m116.8 19.5c0 1.5-1.3 2.7-2.8 2.7h-14.1c-1.5 0-2.8-1.2-2.8-2.7v-13.5c0-1.5 1.3-2.7 2.8-2.7h14.1c1.5 0 2.8 1.2 2.8 2.7zm-19.6 11.1c0-1.5 1.3-2.7 2.8-2.7h13.9c1.5 0 2.8 1.2 2.8 2.7v63.3c0 1.5-1.2 2.7-2.8 2.7h-13.9c-1.5 0-2.8-1.2-2.8-2.7z"/>
  <path d="m125.1 30.6c0-1.5 1.3-2.7 2.8-2.7h12.5c1.5 0 2.8 1.2 2.8 2.7v4.8c0 1.5 1.3 1.7 1.7.6 1.5-3.5 6.7-9 14.1-9 6.4 0 11.7 2.8 15.9 8.4s6.4 14.2 6.4 25.7c0 12.1-2.1 21.2-6.2 27.3s-10 9.2-17.5 9.2c-5.4 0-9.8-2-13.3-6.1v25.7c0 1.5-1.3 2.7-2.8 2.7h-13.6c-1.5 0-2.8-1.2-2.8-2.7zm19.1 35c0 1.5.1 4 .1 5.5 0 0 .4 8.1 1.5 10.1s3.3 2.9 6.6 2.9c2.9 0 5.1-1.3 6.6-3.9 1.4-2.6 2.1-9 2.1-19.1 0-8.4-.6-14.1-1.9-17.1-1.2-3-3.3-4.5-6.3-4.5-2.4 0-4.5.9-6.2 2.8s-2.6 6.2-2.6 13.1v10.2z"/>
  <path d="m209.8 27.9v66c0 1.5-1.3 2.7-2.8 2.7h-13.1c-1.5 0-2.8-1.2-2.8-2.7 0 0 .1-67.2.1-68.7 0 0 .4-9.1 1.5-12.5 1-3.4 3.2-6.3 6.6-8.9 3.4-2.5 8-3.8 13.8-3.8 2.5 0 5 .2 7.4.6 1.5.2 2.5 1.2 2.5 2.6v9.8c0 1.5-1.2 2.6-2.8 2.5 0 0-.3 0-1.6 0-3.7 0-6.1.8-7.2 2.3s-1.6 4.9-1.6 10.1z"/>
  <path d="m278.5 62.2c0 23.9-9.4 35.8-28.3 35.8s-28.4-11.9-28.4-35.8c0-23.8 9.5-35.7 28.4-35.7 18.9-.1 28.3 11.9 28.3 35.7zm-20.1 0c0-8.8-.6-14.7-1.8-17.8s-3.4-4.6-6.4-4.6c-2.9 0-5.1 1.5-6.3 4.4-1.3 2.9-1.9 8.9-1.9 18 0 8.4.5 14.2 1.7 17.5 1.1 3.3 3.3 4.9 6.6 4.9 3.2 0 5.3-1.6 6.5-4.9 1.1-3.2 1.6-9 1.6-17.5z"/>
  <path d="m285 6.5c0-1.5 1.2-2.7 2.8-2.7h13.9c1.5 0 2.8 1.2 2.8 2.7v87.4c0 1.5-1.2 2.7-2.8 2.7h-13.9c-1.5 0-2.8-1.2-2.8-2.7z"/>
  <path d="m332.4 19.5c0 1.5-1.3 2.7-2.8 2.7h-14.1c-1.5 0-2.8-1.2-2.8-2.7v-13.5c0-1.5 1.2-2.7 2.8-2.7h14.1c1.5 0 2.8 1.2 2.8 2.7zm-19.6 11.1c0-1.5 1.2-2.7 2.8-2.7h13.9c1.5 0 2.8 1.2 2.8 2.7v63.3c0 1.5-1.3 2.7-2.8 2.7h-13.9c-1.5 0-2.8-1.2-2.8-2.7z"/>
  <path d="m395.5 62.2c0 23.9-9.4 35.8-28.3 35.8s-28.4-11.9-28.4-35.8c0-23.8 9.5-35.7 28.4-35.7 18.9-.1 28.3 11.9 28.3 35.7zm-20.1 0c0-8.8-.6-14.7-1.8-17.8s-3.3-4.6-6.4-4.6c-2.9 0-5.1 1.5-6.4 4.4s-1.9 8.9-1.9 18c0 8.4.5 14.2 1.7 17.5 1.1 3.3 3.3 4.9 6.6 4.9 3.2 0 5.3-1.6 6.5-4.9 1.1-3.2 1.7-9 1.7-17.5z"/>
  <path d="m222 40.2c0 1.5-1.3 2.7-2.8 2.7h-33.2c-1.5 0-2.8-1.2-2.8-2.7v-9.6c0-1.5 1.3-2.7 2.8-2.7h33.3c1.5 0 2.8 1.2 2.8 2.7v9.6z"/>
  <path d="m404.7 83.1c1.2 0 2.3.3 3.3.9 1.1.6 1.9 1.4 2.5 2.5s.9 2.2.9 3.4-.3 2.3-.9 3.4-1.4 1.9-2.5 2.5-2.2.9-3.4.9-2.3-.3-3.4-.9-1.9-1.4-2.5-2.5-.9-2.2-.9-3.4.3-2.3.9-3.4 1.4-1.9 2.5-2.5c1.2-.6 2.3-.9 3.5-.9zm0 1.3c-.9 0-1.8.2-2.7.7s-1.5 1.1-2 2-.7 1.8-.7 2.7.2 1.8.7 2.7 1.1 1.5 2 2 1.8.7 2.7.7 1.8-.2 2.7-.7 1.5-1.1 2-2 .7-1.8.7-2.7-.2-1.9-.7-2.7-1.2-1.5-2-2c-.9-.4-1.8-.7-2.7-.7zm-3.1 9v-7.1h1.5 2.3c.5 0 .9.1 1.1.3.3.1.5.4.7.7s.3.6.3 1c0 .5-.2 1-.5 1.3-.3.4-.8.6-1.4.7.2.1.4.2.5.3s.3.3.5.5c.1.1.2.4.5.9l.8 1.4h-1.8l-.6-1.2c-.4-.8-.7-1.3-1-1.5s-.6-.3-1-.3h-.4v2.9h-1.5zm1.5-4h.6c.8 0 1.4 0 1.6-.1s.4-.2.5-.3c.1-.2.2-.3.2-.5s-.1-.4-.2-.5c-.1-.2-.3-.3-.5-.3s-.7-.1-1.6-.1h-.6z"/>
</svg>