<?xml version="1.0" encoding="UTF-8"?>
<svg class="c0168" width="909.13" height="1e3" fill="none" aria-hidden="true" version="1.1" viewBox="0 0 909.13 1e3" xmlns="http://www.w3.org/2000/svg">
 <g>
  <path d="m365.57 23.261-5.107 3.089c-8.1231 4.9138-15.776 10.408-22.917 16.411l14.73-10.361h125.02l22.728 172.1-113.64 113.64-113.64 78.99v91.083c0 63.616 33.249 122.61 87.672 155.55l119.63 72.414-252.76 147.44h-48.75l-90.861-54.998c-54.423-32.942-87.671-91.933-87.671-155.55v-306.28c0-63.637 33.269-122.64 87.72-155.58l272.74-164.97c1.691-1.0221 3.3933-2.0146 5.107-2.9772z" fill="url(#paint0_radial_1076_382175)"/>
  <path d="m365.57 23.261-5.107 3.089c-8.1231 4.9138-15.776 10.408-22.917 16.411l14.73-10.361h125.02l22.728 172.1-113.64 113.64-113.64 78.99v91.083c0 63.616 33.249 122.61 87.672 155.55l119.63 72.414-252.76 147.44h-48.75l-90.861-54.998c-54.423-32.942-87.671-91.933-87.671-155.55v-306.28c0-63.637 33.269-122.64 87.72-155.58l272.74-164.97c1.691-1.0221 3.3933-2.0146 5.107-2.9772z" fill="url(#paint1_linear_1076_382175)"/>
  <path d="m636.39 386.34v101.83c0 63.616-33.249 122.61-87.672 155.55l-272.74 165.09c-55.791 33.772-125.21 34.99-181.99 3.657l266.41 161.26c57.882 35.035 130.43 35.035 188.31 0l272.74-165.09c54.423-32.942 87.672-91.933 87.672-155.55v-73.558l-22.728-34.092z" fill="url(#paint2_radial_1076_382175)"/>
  <path d="m636.39 386.34v101.83c0 63.616-33.249 122.61-87.672 155.55l-272.74 165.09c-55.791 33.772-125.21 34.99-181.99 3.657l266.41 161.26c57.882 35.035 130.43 35.035 188.31 0l272.74-165.09c54.423-32.942 87.672-91.933 87.672-155.55v-73.558l-22.728-34.092z" fill="url(#paint3_linear_1076_382175)"/>
  <path d="m821.41 191.22-272.74-164.97c-56.064-33.912-125.88-34.963-182.79-3.1517l-5.4184 3.2774c-54.45 32.936-87.72 91.942-87.72 155.58v215.55l87.72-53.061c57.857-34.995 130.36-34.995 188.21 0l272.74 164.97c52.748 31.908 85.619 88.279 87.622 149.62 0.0659-1.9819 0.0977-3.9661 0.0977-5.9571v-306.28c0-63.637-33.27-122.64-87.72-155.58z" fill="url(#paint4_radial_1076_382175)"/>
  <path d="m821.41 191.22-272.74-164.97c-56.064-33.912-125.88-34.963-182.79-3.1517l-5.4184 3.2774c-54.45 32.936-87.72 91.942-87.72 155.58v215.55l87.72-53.061c57.857-34.995 130.36-34.995 188.21 0l272.74 164.97c52.748 31.908 85.619 88.279 87.622 149.62 0.0659-1.9819 0.0977-3.9661 0.0977-5.9571v-306.28c0-63.637-33.27-122.64-87.72-155.58z" fill="url(#paint5_linear_1076_382175)"/>
  <path d="m0.097277 659.04" fill="url(#paint4_radial_1076_382175)"/>
  <path d="m0.097277 659.04" fill="url(#paint5_linear_1076_382175)"/>
 </g>
 <defs>
  <radialGradient id="paint0_radial_1076_382175" cx="0" cy="0" r="1" gradientTransform="matrix(-265.92 710.19 -1238.7 -463.83 304.98 196.28)" gradientUnits="userSpaceOnUse">
   <stop stop-color="#AE7FE2" offset=".06441"/>
   <stop stop-color="#0078D4" offset="1"/>
  </radialGradient>
  <linearGradient id="paint1_linear_1076_382175" x1="17.512" x2="12.751" y1="37.868" y2="29.634" gradientTransform="matrix(22.728 0 0 22.728 -90.913 -45.501)" gradientUnits="userSpaceOnUse">
   <stop stop-color="#114A8B" offset="0"/>
   <stop stop-color="#0078D4" stop-opacity="0" offset="1"/>
  </linearGradient>
  <radialGradient id="paint2_radial_1076_382175" cx="0" cy="0" r="1" gradientTransform="matrix(698.21 -102.69 67.836 461.21 146.14 780.69)" gradientUnits="userSpaceOnUse">
   <stop stop-color="#D59DFF" offset=".13393"/>
   <stop stop-color="#5E438F" offset="1"/>
  </radialGradient>
  <linearGradient id="paint3_linear_1076_382175" x1="40.357" x2="35.255" y1="25.377" y2="32.692" gradientTransform="matrix(22.728 0 0 22.728 -90.913 -45.501)" gradientUnits="userSpaceOnUse">
   <stop stop-color="#493474" offset="0"/>
   <stop stop-color="#8C66BA" stop-opacity="0" offset="1"/>
  </linearGradient>
  <radialGradient id="paint4_radial_1076_382175" cx="0" cy="0" r="1" gradientTransform="matrix(-549.08 -139.22 234.37 -924.32 842.2 556.89)" gradientUnits="userSpaceOnUse">
   <stop stop-color="#50E6FF" offset=".0585"/>
   <stop stop-color="#436DCD" offset="1"/>
  </radialGradient>
  <linearGradient id="paint5_linear_1076_382175" x1="16.976" x2="24.487" y1="3.0566" y2="3.0566" gradientTransform="matrix(22.728 0 0 22.728 -90.913 -45.501)" gradientUnits="userSpaceOnUse">
   <stop stop-color="#2D3F80" offset="0"/>
   <stop stop-color="#436DCD" stop-opacity="0" offset="1"/>
  </linearGradient>
 </defs>
</svg>
