<svg fill="none" height="auto" style="display:block;" viewBox="0 0 202 37" width="auto" xmlns="http://www.w3.org/2000/svg">
<path class="navdeclogo" clip-rule="evenodd" d="M60.1613 0.712891H56.017L45.3846 22.0078L41.5457 18.1309L50.2285 0.737789L50.1752 0.712891H46.0309L38.7438 15.3067L35.5832 12.1162L41.2652 0.737789L41.2084 0.712891H37.0641L29.4361 15.9932L24.404 10.914H22.0815L19.8442 15.3601L15.4371 10.914H13.1146L0 37H4.21885L14.9115 15.7407L18.058 18.917L8.96328 37H13.1821L20.8564 21.7411L24.681 25.6039L18.9493 37H23.1682L30.4979 22.424L35.0718 27.0372H37.0996L39.7666 21.6984L45.0614 27.0408H47.0892L60.2181 0.741346L60.1613 0.712891ZM25.7555 22.0067L22.6445 18.8661L24.2213 15.7324L27.3251 18.8625L25.7555 22.0067ZM32.2852 18.8661L35.396 22.0067L36.9657 18.8625L33.8619 15.7324L32.2852 18.8661Z" fill="currentColor" fill-rule="evenodd" id="navdec"></path>
<path class="navdectext" clip-rule="evenodd" d="M77.5989 8.9043V22.4373L69.2457 8.9043H65.4023V28.3965H68.9666V14.8914L77.293 28.3965H81.1352V8.9043H77.5989Z" fill="currentColor" fill-rule="evenodd"></path>
<path class="navdectext" clip-rule="evenodd" d="M89.8689 25.5872C87.5859 25.5872 86.082 23.8886 86.082 21.3819C86.082 18.8763 87.5859 17.1777 89.8689 17.1777C92.1244 17.1777 93.6557 18.8763 93.6557 21.3819C93.6557 23.8886 92.1244 25.5872 89.8689 25.5872ZM89.8744 14.1426C85.6145 14.1426 82.5508 17.2058 82.5508 21.382C82.5508 25.5593 85.6145 28.6225 89.8744 28.6225C94.135 28.6225 97.1981 25.5593 97.1981 21.382C97.1981 17.2058 94.135 14.1426 89.8744 14.1426Z" fill="currentColor" fill-rule="evenodd"></path>
<path class="navdectext" clip-rule="evenodd" d="M106.644 14.3874C106.063 14.4154 105.48 14.4797 104.92 14.6413C103.695 14.9943 102.915 15.7795 102.411 16.9283V14.3662H98.9023V28.4009H102.411V23.2493C102.411 23.2152 102.411 23.1822 102.411 23.1481C102.417 21.9713 102.502 20.7096 103.01 19.6274C103.338 18.9311 103.857 18.4283 104.51 18.0345C104.667 17.9389 104.828 17.8589 104.992 17.7918C105.449 17.6033 105.93 17.5099 106.433 17.4389C107.004 17.3584 107.513 17.317 108.178 17.3181C108.178 17.3181 108.175 14.3662 108.175 14.3662C108.175 14.3544 106.767 14.3818 106.644 14.3874Z" fill="currentColor" fill-rule="evenodd"></path>
<path class="navdectext" clip-rule="evenodd" d="M115.149 10.2422H111.64V14.3636H109.273V17.3149H111.64V23.8037C111.64 27.0895 113.757 28.6209 116.597 28.6209C117.307 28.6209 117.971 28.5286 118.595 28.3373V25.1986C118.095 25.4464 117.485 25.5297 116.958 25.5297C115.873 25.5297 115.149 24.806 115.149 23.4693V17.3149H118.685V14.3636H115.149V10.2422Z" fill="currentColor" fill-rule="evenodd"></path>
<path class="navdectext" clip-rule="evenodd" d="M128.402 14.1495C126.452 14.1495 124.865 15.0125 123.946 16.5443V8.69141H120.438V28.4068H123.946V22.3089C123.946 19.1338 125.171 17.2681 127.343 17.2681C129.069 17.2681 130.128 18.3547 130.128 20.0807V28.4068H133.636V19.2177C133.636 16.1545 131.548 14.1495 128.402 14.1495Z" fill="currentColor" fill-rule="evenodd"></path>
<path class="navdectext" clip-rule="evenodd" d="M142.606 25.595C140.351 25.595 138.875 23.9244 138.875 21.3897C138.875 18.8561 140.351 17.1855 142.606 17.1855C144.834 17.1855 146.31 18.8561 146.31 21.3897C146.31 23.9244 144.834 25.595 142.606 25.595ZM143.168 14.1495C141.414 14.1495 139.91 14.8737 139.103 15.9319V8.69141H135.594V28.4068H139.103V26.7921C139.799 27.9062 141.358 28.6299 143.112 28.6299C147.317 28.6299 149.795 25.678 149.795 21.3894C149.795 17.1014 147.317 14.1495 143.168 14.1495Z" fill="currentColor" fill-rule="evenodd"></path>
<path class="navdectext" clip-rule="evenodd" d="M154.328 19.7482C154.718 17.8544 155.944 16.8242 157.67 16.8242C159.702 16.8242 160.789 18.0776 160.956 19.7482H154.328ZM157.673 14.1504C153.022 14.1504 150.738 17.7427 150.738 21.3909C150.738 25.0386 153.217 28.6309 157.867 28.6309C161.153 28.6309 163.603 27.0716 164.383 24.4256L161.098 23.5346C160.735 24.8993 159.566 25.6789 157.923 25.6789C155.918 25.6789 154.553 24.4256 154.248 22.3098H164.662C164.689 22.0313 164.717 21.4183 164.717 20.9172C164.717 17.6593 162.406 14.1504 157.673 14.1504Z" fill="currentColor" fill-rule="evenodd"></path>
<path class="navdectext" clip-rule="evenodd" d="M174.79 22.3377C174.79 24.3981 173.537 26.0413 171.365 26.0413C170.084 26.0413 169.305 25.3171 169.305 24.3428C169.305 23.34 170.252 22.5603 172.117 22.3377L174.79 22.0312V22.3377ZM172.005 14.1504C169.025 14.1504 166.547 15.9328 166.101 18.7175L169.22 19.274C169.387 17.7706 170.473 16.8243 172.005 16.8243C173.704 16.8243 174.789 17.7986 174.789 19.3859V19.5251L172.172 19.7757C167.995 20.2214 165.906 21.6968 165.906 24.4536C165.906 26.8484 167.828 28.6309 170.585 28.6309C172.311 28.6309 174.01 27.7399 174.789 26.3753V28.4083H178.187V19.859C178.187 16.1275 175.681 14.1504 172.005 14.1504Z" fill="currentColor" fill-rule="evenodd"></path>
<path class="navdectext" clip-rule="evenodd" d="M196.424 14.1504C194.196 14.1504 192.525 15.3758 191.774 16.7958C191.133 15.0973 189.63 14.1504 187.402 14.1504C185.453 14.1504 184.144 15.1252 183.364 16.5173V14.373H179.855V28.4077H183.364V21.279C183.364 18.8009 184.45 17.1303 186.371 17.1303C187.986 17.1303 188.878 18.1884 188.878 19.859V28.4077H192.386V21.2511C192.386 18.7734 193.472 17.1303 195.365 17.1303C197.008 17.1303 197.927 18.1884 197.927 19.859V28.4077H201.436V18.8847C201.436 16.1275 199.459 14.1504 196.424 14.1504Z" fill="currentColor" fill-rule="evenodd"></path>
</svg>