<?xml version="1.0" encoding="utf-8"?>
<!-- Generator: Adobe Illustrator 19.2.1, SVG Export Plug-In . SVG Version: 6.00 Build 0)  -->
<svg version="1.1" id="layer" xmlns="http://www.w3.org/2000/svg" xmlns:xlink="http://www.w3.org/1999/xlink" x="0px" y="0px"
	 viewBox="0 0 652 652" style="enable-background:new 0 0 652 652;" xml:space="preserve">
<style type="text/css">
	.st0{opacity:0.7;enable-background:new    ;}
</style>
<g>
	<path d="M104.3,426.3c-0.6,0.4-1.2,0.8-1.9,1.3c-0.7,0.5-1.3,1-2,1.5c-0.6,0.5-1,1.1-1.4,1.7c-0.3,0.6-0.4,1.3-0.2,2
		c0,0.1,0.1,0.2,0.1,0.4l0.1,0.4l0.1,0.4l0.1,0.3c-0.4,0.7-0.8,1.4-1.2,2c-0.3,0.6-0.7,1.2-1.1,1.7c-0.4,0.5-0.9,0.9-1.5,1.2
		c-0.7,0.3-1.4,0.4-2.2,0.4c-0.8,0-1.7-0.2-2.5-0.4c-0.8-0.3-1.6-0.6-2.3-1c-0.8-0.4-1.5-0.9-2.2-1.4c-0.7-0.5-1.4-1.1-2.1-1.7
		c0-0.1,0-0.2-0.1-0.3s0-0.2-0.1-0.3c-0.1-0.1,0-0.2-0.1-0.3c-0.1-0.1-0.1-0.2-0.1-0.3c-0.2-0.6-0.5-1.2-0.8-1.7
		c-0.4-0.5-0.8-1-1.3-1.5c-0.5-0.4-1-0.8-1.5-1.2c-0.5-0.4-1.1-0.7-1.7-1c0,0,0,0,0,0v0v0v0l0.1,0.3c0,0.1,0.1,0.2,0.1,0.3
		s0.1,0.2,0.1,0.3s0.1,0.2,0.1,0.3c0.6,1.7,1.4,3.3,2.4,4.7c1,1.4,2.2,2.7,3.5,3.8c1.3,1.1,2.7,2,4.3,2.6c1.5,0.7,3.1,1.1,4.8,1.2
		c1.6,0.1,3.2-0.2,4.6-0.8c1.4-0.6,2.7-1.6,3.7-2.8c1.1-1.3,1.9-2.9,2.3-4.6c0.5-1.9,0.5-3.9,0-5.9L104.3,426.3"/>
	<path d="M39,344.7l-0.5,0.2l-0.5,0.3l-0.5,0.3l-0.5,0.3c-0.9,0.6-1.8,1.2-2.6,1.8c-0.8,0.6-1.6,1.3-2.3,2.1c-0.7,0.8-1.4,1.7-2,2.6
		c-0.7,1.1-1.3,2.3-1.8,3.5c1.6-0.2,3.2-0.2,4.8,0c1.7,0.2,3.3,0.7,4.9,1.3c1.7,0.7,3.4,1.6,5,2.6c1.8,1.2,3.5,2.5,5.1,3.9
		l-6.6-19.8l-0.6,0.1l-0.6,0.2l-0.6,0.2L39,344.7"/>
	<path d="M44.4,343.6l6.6,19.2l14.6,0.2c-1.4-2.9-3.1-5.6-4.9-8.2c-1.6-2.2-3.3-4.2-5.3-6c-1.6-1.5-3.5-2.8-5.5-3.8
		C48.1,344.2,46.3,343.7,44.4,343.6"/>
	<path d="M53,368.9c2.4,2.9,4.6,5.9,6.6,9.1c2.3,3.6,4.4,7.4,6.2,11.3c2,4.2,3.9,8.6,5.6,13.4c1.8,4.8,3.4,9.9,4.9,15.3
		c0.1-2.3,0.1-4.7,0.1-7.2c0-2.4-0.2-4.9-0.4-7.4c-0.2-2.5-0.5-5-0.8-7.6c-0.4-2.6-0.8-5.1-1.3-7.7c-0.4-1.7-0.7-3.4-1.1-5
		c-0.4-1.7-0.8-3.2-1.3-4.8c-0.5-1.6-0.9-3.1-1.5-4.5c-0.5-1.5-1-2.9-1.6-4.3L53,368.9"/>
	<path d="M20,227.3c0.4,3.9,0.9,7.9,1.4,12c0.6,4,1.1,8.1,1.7,12.3c0.6,4.1,1.3,8.3,2,12.5c0.7,4.2,1.5,8.5,2.3,12.8
		c1.1,5.6,2.3,11.1,3.5,16.5c1.2,5.4,2.5,10.6,3.8,15.8c1.3,5.1,2.7,10.1,4.2,15c1.4,4.8,2.9,9.5,4.4,14.1c0.6-0.1,1.3-0.2,2-0.1
		c0.7,0,1.3,0.1,2,0.2c0.7,0.1,1.3,0.3,2,0.5c0.7,0.2,1.4,0.5,2,0.8c-1.5-3.6-3-7.3-4.5-11.2c-1.5-3.8-2.9-7.7-4.3-11.7
		c-1.4-4-2.8-8-4.1-12.2c-1.3-4.2-2.6-8.4-3.9-12.7c-1.7-5.6-3.2-11.2-4.6-16.8c-1.4-5.6-2.7-11-3.9-16.4
		c-1.2-5.4-2.3-10.7-3.2-15.9C21.7,237.5,20.8,232.3,20,227.3"/>
	<path d="M149.8,309.4c-0.8,0.1-1.7,0.3-2.6,0.5c-0.9,0.2-1.7,0.4-2.5,0.6c-0.9,0.2-1.7,0.4-2.5,0.7c-0.8,0.2-1.7,0.5-2.5,0.8
		l-2.8,24.4c2.7-3.1,5.6-6,8.7-8.8c2.9-2.6,6-5.1,9.1-7.4c3.1-2.2,6.3-4.2,9.6-6c3.2-1.7,6.5-3.3,9.9-4.6c-1.9-0.6-3.8-1-5.7-1.3
		c-1.9-0.2-3.8-0.4-5.7-0.3c-1.9,0-3.9,0.2-6,0.4c-2.1,0.2-4.3,0.5-6.6,0.9h-0.1h-0.1H150L149.8,309.4"/>
	<path d="M129,346.5l-35.4,17.6c-0.5,2-0.9,3.9-1.2,5.9c-0.3,2-0.6,4-0.7,6.1c-0.2,2.1-0.2,4.2-0.2,6.2s0.1,4.2,0.4,6.3
		c0.3,3.1,0.8,6.2,1.6,9.2c0.7,2.9,1.6,5.8,2.7,8.7c1.1,2.7,2.4,5.4,3.8,8c1.4,2.5,3.1,4.9,4.8,7.2c0.3-14.1,2.7-28.1,7.2-41.5
		c2.1-6.2,4.6-12.2,7.5-18C122.3,356.8,125.4,351.5,129,346.5"/>
	<path class="st0" d="M118.3,198.8c1.2,4.5,2.2,9.1,2.9,13.7c0.8,4.8,1.3,9.8,1.8,14.9s0.7,10.6,1,16.2c0.2,5.6,0.3,11.6,0.4,17.6
		c0.2,14.1-0.8,25.5-2.7,35c-1.6,8.3-4.1,16.3-7.7,24c-2.9,5.9-6,11.6-9.5,17.1c-3.1,5.2-5.7,10.1-7.4,15.8
		c-0.1,0.1-0.1,0.3-0.2,0.4s-0.1,0.3-0.2,0.4l-0.2,0.4c-0.1,0.1-0.1,0.3-0.2,0.4l33.5-16.1l0,0l0,0c1.7-10.7,2.8-20.8,3.4-30.2
		c0.6-9.1,0.7-17.7,0.6-25.6c-0.2-7.8-0.6-15-1.3-21.6s-1.5-12.5-2.4-18c-0.7-4.1-1.5-8.1-2.3-12.1c-0.9-3.9-1.8-7.7-2.8-11.4
		c-1-3.7-2.1-7.3-3.2-10.8S119.6,202.1,118.3,198.8"/>
</g>
<g>
	<path d="M257.5,386.4c-22.9,0-33.2-11.4-33.2-26.3l1.1-1.1h13.7l1.1,1.1c0,8,4.6,12.6,18.3,12.6c10.3,0,16-3.4,16-10.3
		c0-8-4.6-10.3-20.6-12.6c-16-2.3-28.6-8-28.6-24c0-11.4,9.1-21.7,30.9-21.7s30.9,10.3,30.9,24l-1.1,1.1h-13.7l-1.1-1.1
		c0-6.9-3.4-10.3-16-10.3c-10.3,0-13.7,3.4-13.7,8c0,6.9,4.6,9.1,20.6,11.4c16,2.3,28.6,9.1,28.6,25.2
		C290.6,375,281.5,386.4,257.5,386.4z"/>
	<path d="M329.5,386.4c-10.3,0-14.9-5.7-14.9-5.7h-1.1V407l-1.2,1.1h-13.7l-1.1-1.1v-77.8l1.1-1.1h12.6l1.1,1.1l1.1,3.4h1.1
		c0,0,4.6-5.7,14.9-5.7c13.7,0,25.2,11.4,25.2,29.7C354.7,375,343.2,386.4,329.5,386.4z M326.1,340.6c-9.1,0-12.6,6.9-12.6,16
		c0,9.1,3.4,16,12.6,16c9.1,0,12.6-6.9,12.6-16C338.7,347.5,335.2,340.6,326.1,340.6z"/>
	<path d="M398.1,341.8h-8c-9.1,0-12.6,4.6-12.6,14.9v27.4l-1.1,1.1h-13.7l-1.1-1.1v-54.9l1.1-1.1h12.6l1.1,1.1l1.1,3.4h1.1
		c0,0,2.3-4.6,12.6-4.6h6.9l1.1,1.1v11.4L398.1,341.8z"/>
	<path d="M440.4,386.4c-4.6,11.4-9.1,18.3-25.2,18.3h-5.8l-1.1-1.1v-11.4l1.1-1.1h5.7c5.7,0,6.9-1.1,8-4.6v-1.1L405,340.6v-11.4
		l1.1-1.1h10.3l1.1,1.1l13.7,38.9h1.1l13.7-38.9l1.1-1.1h10.3l1.1,1.1v11.4L440.4,386.4z"/>
	<path d="M514.8,385.3h-6.9l-2.3-1.1l-16-17.2h-1.1l-6.9,6.9l-1.1,2.3v8l-1.1,1.2h-13.7l-1.1-1.1v-77.8l1.1-1.1h13.7l1.1,1.1v45.8
		h1.1l22.9-22.9l2.3-1.1h6.9l1.1,1.1v11.4l-13.7,13.7v1.1l14.8,17.2v11.4L514.8,385.3z"/>
	<path d="M574.3,361.2l-1.1,1.1h-35.4l-1.1,1.1c0,2.3,2.3,9.1,11.4,9.1c3.4,0,6.9-1.1,8-3.4l1.1-1.1h13.7l1.1,1.1
		c-1.1,6.9-6.9,17.2-24,17.2c-19.4,0-28.6-13.7-28.6-29.7s9.1-29.7,27.4-29.7c18.3,0,27.4,13.7,27.4,29.7L574.3,361.2L574.3,361.2z
		 M557.1,349.8c0-1.1-1.1-9.1-10.3-9.1c-9.1,0-10.3,8-10.3,9.1l1.1,1.1h18.3L557.1,349.8z"/>
	<path d="M618.9,341.8h-8c-9.1,0-12.6,4.6-12.6,14.9v27.4l-1.1,1.1h-13.7l-1.1-1.1v-54.9l1.1-1.1H596l1.1,1.1l1.1,3.4h1.1
		c0,0,2.3-4.6,12.6-4.6h6.9l1.1,1.1v11.4L618.9,341.8z"/>
</g>
</svg>
