<?xml version="1.0" encoding="utf-8"?>
<!-- Generator: Adobe Illustrator 16.0.0, SVG Export Plug-In . SVG Version: 6.00 Build 0)  -->
<!DOCTYPE svg PUBLIC "-//W3C//DTD SVG 1.1//EN" "http://www.w3.org/Graphics/SVG/1.1/DTD/svg11.dtd">
<svg version="1.1" id="Layer_1" xmlns="http://www.w3.org/2000/svg" xmlns:xlink="http://www.w3.org/1999/xlink" x="0px" y="0px"
	 width="1000px" height="144.756px" viewBox="0 0 1000 144.756" enable-background="new 0 0 1000 144.756" xml:space="preserve">
<g>
	<path d="M37.119,76.636l56.055-56.741c3.808-3.856,8.874-5.975,14.277-5.975c5.396,0,10.463,2.117,14.268,5.973l4.367,4.419
		l8.737-8.843l-4.367-4.42c-6.136-6.21-14.306-9.631-23.009-9.631c-8.702,0.001-16.873,3.423-23.008,9.635L28.385,67.792
		L37.119,76.636z"/>
	<path d="M112.117,38.742l-8.778-8.831L47.021,86.568c-7.909,7.956-20.776,7.958-28.683,0.004c-7.909-7.956-7.909-20.902,0-28.858
		L66.936,8.827L58.158,0L9.562,48.885C-3.187,61.71-3.187,82.578,9.562,95.4c6.166,6.199,14.372,9.619,23.115,9.619
		c8.745,0,16.957-3.42,23.12-9.62L112.117,38.742z"/>
	<path d="M167.836,49.353c-6.162-6.202-14.371-9.616-23.117-9.616c-8.744,0.003-16.955,3.417-23.12,9.621l-56.316,56.656
		l8.773,8.831l56.321-56.658c7.911-7.956,20.777-7.955,28.683-0.001c3.824,3.847,5.931,8.968,5.931,14.426
		c0,5.459-2.106,10.583-5.931,14.431l-48.594,48.887l8.777,8.828l48.593-48.884C180.586,83.047,180.586,62.178,167.836,49.353"/>
	<path d="M140.281,68.12l-56.054,56.741c-7.874,7.965-20.679,7.969-28.548,0.001l-4.367-4.421l-8.737,8.844l4.367,4.421
		c6.137,6.211,14.305,9.631,23.012,9.631c8.702-0.001,16.87-3.422,23.007-9.635l56.053-56.738L140.281,68.12z"/>
	<path d="M229.164,87.151c0.722,3.622,2.418,6.456,5.08,8.497c2.659,2.048,6.159,3.069,10.5,3.069c4.271,0,7.571-1.005,9.906-3.018
		c2.334-2.01,3.5-4.658,3.5-7.944c0-1.608-0.311-2.966-0.935-4.071c-0.625-1.107-1.496-2.045-2.613-2.816
		c-1.12-0.768-2.497-1.425-4.141-1.96c-1.642-0.536-3.484-1.105-5.522-1.71l-5.322-1.507c-3.155-0.87-5.983-1.927-8.479-3.17
		c-2.5-1.239-4.634-2.698-6.408-4.374c-1.774-1.674-3.124-3.602-4.043-5.782c-0.919-2.179-1.38-4.71-1.38-7.591
		c0-3.017,0.592-5.799,1.777-8.347c1.182-2.545,2.858-4.728,5.027-6.536c2.168-1.81,4.798-3.234,7.887-4.276
		c3.088-1.035,6.57-1.556,10.45-1.556c7.296,0,13.078,1.759,17.354,5.278c4.27,3.521,6.767,8.23,7.492,14.13l-11.832,1.004
		c-0.724-3.017-2.168-5.363-4.339-7.038c-2.168-1.676-5.191-2.515-9.068-2.515c-3.617,0-6.442,0.854-8.479,2.564
		c-2.041,1.71-3.06,3.908-3.06,6.586c0,1.542,0.298,2.832,0.89,3.87c0.592,1.042,1.445,1.946,2.563,2.715
		c1.117,0.772,2.481,1.458,4.09,2.061c1.611,0.604,3.435,1.244,5.473,1.911l5.03,1.609c3.151,1.005,5.997,2.061,8.524,3.167
		c2.532,1.105,4.685,2.431,6.458,3.972c1.775,1.543,3.141,3.386,4.092,5.531c0.953,2.146,1.43,4.794,1.43,7.944
		c0,3.353-0.657,6.421-1.971,9.199c-1.317,2.785-3.154,5.147-5.522,7.09c-2.366,1.945-5.174,3.455-8.43,4.524
		c-3.254,1.071-6.851,1.61-10.794,1.61c-7.296,0-13.376-1.742-18.239-5.229c-4.865-3.487-7.854-8.748-8.973-15.789L229.164,87.151z"
		/>
	<path d="M321.958,46.289c-3.546,0-6.717,0.667-9.51,1.998c-2.792,1.333-5.158,3.181-7.094,5.543
		c-1.94,2.366-3.419,5.166-4.438,8.392c-1.016,3.232-1.526,6.747-1.526,10.542c0,3.797,0.525,7.326,1.577,10.591
		c1.048,3.263,2.546,6.093,4.484,8.493c1.936,2.395,4.303,4.277,7.096,5.644c2.791,1.363,5.962,2.046,9.51,2.046
		s6.717-0.647,9.512-1.946c2.79-1.299,5.157-3.114,7.096-5.448c1.937-2.328,3.433-5.145,4.483-8.438
		c1.05-3.297,1.577-6.912,1.577-10.841c0-3.862-0.527-7.428-1.577-10.69c-1.05-3.261-2.546-6.06-4.483-8.392
		c-1.939-2.329-4.321-4.163-7.147-5.495C328.693,46.956,325.508,46.289,321.958,46.289 M322.058,35.479
		c5.322,0,10.185,0.917,14.586,2.753c4.401,1.835,8.146,4.402,11.235,7.707c3.087,3.306,5.483,7.257,7.194,11.861
		c1.708,4.604,2.562,9.642,2.562,15.113c0,5.675-0.902,10.796-2.708,15.365c-1.812,4.572-4.387,8.525-7.739,11.861l9.462,11.311
		v3.503h-12.024l-6.603-8.206c-2.301,1.067-4.766,1.9-7.391,2.499c-2.63,0.603-5.455,0.903-8.476,0.903
		c-5.454,0-10.365-0.92-14.734-2.752c-4.371-1.837-8.083-4.404-11.138-7.709c-3.055-3.303-5.421-7.237-7.095-11.812
		c-1.675-4.569-2.515-9.558-2.515-14.964c0-5.471,0.839-10.491,2.515-15.064c1.673-4.569,4.055-8.507,7.145-11.811
		c3.085-3.303,6.814-5.888,11.186-7.757C311.891,36.415,316.736,35.479,322.058,35.479"/>
	<path d="M405.888,98.921c5.042,0,8.969-1.591,11.787-4.774c2.813-3.185,4.221-8.061,4.221-14.631V35.479h12.376v44.338
		c0,5.229-0.654,9.701-1.965,13.423c-1.312,3.72-3.177,6.771-5.598,9.151c-2.422,2.38-5.403,4.121-8.936,5.228
		c-3.536,1.105-7.498,1.657-11.884,1.657c-4.455,0-8.432-0.552-11.933-1.657c-3.503-1.106-6.465-2.848-8.888-5.228
		c-2.421-2.381-4.288-5.432-5.601-9.151c-1.31-3.722-1.962-8.193-1.962-13.423V35.479h12.375v44.037
		c0,6.57,1.407,11.446,4.222,14.631C396.919,97.33,400.845,98.921,405.888,98.921"/>
	<path d="M469.726,76.924h23.679l-3.897-11.266c-1.534-4.413-2.763-8.004-3.696-10.771c-0.933-2.767-1.767-5.206-2.497-7.314h-3.097
		c-0.4,1.12-0.8,2.241-1.199,3.359c-0.4,1.121-0.85,2.374-1.349,3.756c-0.501,1.384-1.049,2.965-1.649,4.744
		c-0.599,1.777-1.331,3.854-2.197,6.225L469.726,76.924z M447.044,104.398l25.48-67.501h18.883l25.177,67.501v3.46h-12.388
		l-7.192-20.262H465.93l-7.194,20.262h-11.691V104.398z"/>
	<path d="M544.466,69.313h10.785c4.751,0,8.493-0.865,11.23-2.594c2.737-1.73,4.109-4.554,4.109-8.474
		c0-3.984-1.388-6.757-4.159-8.325c-2.77-1.563-6.496-2.349-11.181-2.349h-10.785V69.313z M586.125,107.857h-11.976L552.48,79.988
		h-8.014v27.869h-12.271V36.898h23.056c3.626,0,7.075,0.247,10.339,0.741c3.266,0.494,6.219,1.63,8.859,3.409
		c5.604,3.687,8.411,9.256,8.411,16.697c0,3.23-0.479,6.046-1.438,8.451c-0.956,2.403-2.226,4.445-3.808,6.125
		c-1.585,1.681-3.415,3.046-5.491,4.098c-2.078,1.055-4.24,1.847-6.482,2.371l20.483,25.606V107.857z"/>
	<polygon points="601.736,36.898 647.874,36.898 647.874,47.768 613.94,47.768 613.94,66.348 645.492,66.348 645.492,77.021 
		613.94,77.021 613.94,96.985 648.569,96.985 648.569,107.857 601.736,107.857 	"/>
	<path d="M676.209,87.151c0.721,3.622,2.414,6.456,5.077,8.497c2.661,2.048,6.161,3.069,10.499,3.069
		c4.271,0,7.571-1.005,9.908-3.018c2.331-2.01,3.5-4.658,3.5-7.944c0-1.608-0.313-2.966-0.938-4.071
		c-0.623-1.107-1.495-2.045-2.612-2.816c-1.118-0.768-2.499-1.425-4.14-1.96c-1.646-0.536-3.485-1.105-5.524-1.71l-5.32-1.507
		c-3.154-0.87-5.983-1.927-8.48-3.17c-2.499-1.239-4.633-2.698-6.406-4.374c-1.775-1.674-3.123-3.602-4.044-5.782
		c-0.919-2.179-1.38-4.71-1.38-7.591c0-3.017,0.592-5.799,1.775-8.347c1.182-2.545,2.858-4.728,5.028-6.536
		c2.168-1.81,4.796-3.234,7.887-4.276c3.087-1.035,6.57-1.556,10.448-1.556c7.296,0,13.078,1.759,17.354,5.278
		c4.27,3.521,6.769,8.23,7.492,14.13l-11.831,1.004c-0.723-3.017-2.17-5.363-4.336-7.038c-2.167-1.676-5.194-2.515-9.072-2.515
		c-3.614,0-6.441,0.854-8.478,2.564c-2.037,1.71-3.058,3.908-3.058,6.586c0,1.542,0.297,2.832,0.889,3.87
		c0.592,1.042,1.444,1.946,2.563,2.715c1.116,0.772,2.48,1.458,4.092,2.061c1.611,0.604,3.434,1.244,5.47,1.911l5.029,1.609
		c3.154,1.005,5.997,2.061,8.528,3.167c2.529,1.105,4.684,2.431,6.455,3.972c1.777,1.543,3.141,3.386,4.094,5.531
		c0.954,2.146,1.431,4.794,1.431,7.944c0,3.353-0.657,6.421-1.972,9.199c-1.317,2.785-3.154,5.147-5.523,7.09
		c-2.365,1.945-5.174,3.455-8.428,4.524c-3.256,1.071-6.852,1.61-10.795,1.61c-7.294,0-13.377-1.742-18.238-5.229
		c-4.865-3.487-7.854-8.748-8.973-15.789L676.209,87.151z"/>
	<path d="M749.133,69.907h12.071c2.213,0,4.242-0.18,6.085-0.541c1.844-0.357,3.454-0.96,4.829-1.811
		c1.376-0.849,2.447-1.991,3.221-3.429c0.77-1.437,1.154-3.2,1.154-5.291c0-2.156-0.385-3.965-1.154-5.434
		c-0.773-1.471-1.831-2.628-3.171-3.478c-1.342-0.85-2.935-1.455-4.776-1.813c-1.847-0.359-3.842-0.539-5.985-0.539h-12.273V69.907z
		 M736.558,36.898h26.356c4.896,0,9.003,0.56,12.323,1.681c3.319,1.12,6.001,2.667,8.048,4.646c2.043,1.976,3.521,4.295,4.425,6.967
		c0.903,2.667,1.357,5.549,1.357,8.646c0,3.693-0.62,6.901-1.859,9.636c-1.242,2.733-3.035,4.989-5.383,6.769
		c-2.348,1.778-5.197,3.113-8.55,4.003c-3.354,0.891-7.144,1.335-11.366,1.335h-12.776v27.277h-12.575V36.898z"/>
	<path d="M814.588,76.924h23.68l-3.896-11.266c-1.534-4.413-2.767-8.004-3.701-10.771c-0.93-2.767-1.764-5.206-2.494-7.314h-3.098
		c-0.399,1.12-0.8,2.241-1.2,3.359c-0.399,1.121-0.85,2.374-1.349,3.756c-0.499,1.384-1.048,2.965-1.646,4.744
		c-0.6,1.777-1.333,3.854-2.198,6.225L814.588,76.924z M791.907,104.398l25.48-67.501h18.882l25.178,67.501v3.46h-12.388
		l-7.194-20.262h-31.073l-7.194,20.262h-11.69V104.398z"/>
	<path d="M936.664,89.097c-1.127,2.77-2.605,5.377-4.43,7.823c-1.826,2.444-4.033,4.587-6.62,6.417
		c-2.588,1.83-5.593,3.277-9.012,4.342c-3.417,1.064-7.216,1.598-11.398,1.598c-5.31,0-10.14-0.924-14.484-2.771
		c-4.348-1.845-8.059-4.401-11.131-7.664c-3.074-3.267-5.446-7.155-7.119-11.674c-1.673-4.517-2.508-9.413-2.508-14.69
		c0-5.275,0.835-10.172,2.508-14.69c1.673-4.518,4.061-8.426,7.166-11.724c3.107-3.295,6.837-5.886,11.184-7.763
		c4.348-1.882,9.208-2.82,14.585-2.82c7.829,0,14.386,1.815,19.662,5.441c5.278,3.624,9.01,8.439,11.2,14.441l-12.643,2.472
		c-1.727-3.626-4.135-6.479-7.22-8.558c-3.086-2.076-6.819-3.113-11.2-3.113c-3.518,0-6.654,0.673-9.408,2.019
		c-2.754,1.349-5.076,3.204-6.969,5.569c-1.892,2.365-3.336,5.157-4.331,8.377c-0.995,3.219-1.492,6.667-1.492,10.348
		c0,3.744,0.515,7.211,1.544,10.396c1.027,3.189,2.521,5.946,4.478,8.28c1.957,2.332,4.331,4.153,7.12,5.467
		c2.785,1.317,5.973,1.974,9.556,1.974c4.647,0,8.479-1.122,11.5-3.365c3.021-2.242,5.358-4.978,7.018-8.211L936.664,89.097z"/>
	<polygon points="952.901,36.042 999.302,36.042 999.302,47.016 965.175,47.016 965.175,65.778 996.907,65.778 996.907,76.554 
		965.175,76.554 965.175,96.711 1000,96.711 1000,107.688 952.901,107.688 	"/>
</g>
</svg>
