<svg version="1.1" id="Layer_1" xmlns:x="ns_extend;" xmlns:i="ns_ai;" xmlns:graph="ns_graphs;" xmlns="http://www.w3.org/2000/svg" xmlns:xlink="http://www.w3.org/1999/xlink" x="0px" y="0px" viewBox="0 0 220.6 50" style="enable-background:new 0 0 220.6 50;" xml:space="preserve">
 <style type="text/css">
  .st0{fill:#E01B2A;}
	.st1{fill:#FFFFFF;}
	.st2{fill:#17191C;}
 </style>
 <metadata>
  <sfw xmlns="ns_sfw;">
   <slices>
   </slices>
   <sliceSourceBounds bottomLeftOrigin="true" height="50" width="220.6" x="1755.3" y="-74.4">
   </sliceSourceBounds>
  </sfw>
 </metadata>
 <g id="Group_1628">
  <path id="Rectangle_24501" class="st0" d="M24.5,0h1C39,0,50,11,50,24.5v1C50,39,39,50,25.5,50h-1C11,50,0,39,0,25.5v-1
		C0,11,11,0,24.5,0z">
  </path>
  <rect id="Rectangle_24502" x="13.4" y="11.4" class="st1" width="13.1" height="7">
  </rect>
  <rect id="Rectangle_24503" x="13.4" y="31.6" class="st1" width="19.7" height="7">
  </rect>
  <path id="Path_1215" class="st1" d="M38.3,28.5H13.3v-7h24.9c0.6,0,1.1,0.4,1.2,1c0.1,0.2,0.1,0.5,0.1,0.7h-0.9c0-0.1,0-0.3,0-0.4
		c0-0.3-0.2-0.4-0.4-0.4c-0.2,0-0.4,0.2-0.4,0.6c0,0.4,0,0.5,0.7,1.5l0.5,0.7c0.4,0.6,0.6,1.2,0.7,1.9c0.1,0.7-0.4,1.3-1.1,1.4
		C38.5,28.5,38.4,28.5,38.3,28.5L38.3,28.5z">
  </path>
  <g id="Group_1570">
   <path id="Path_1216" class="st2" d="M81.5,11v21.6c0,1.1-0.2,2.2-1.5,2.2c-1.3,0-1.5-1.2-1.5-2.2V11h-4.3v22.5
			c0,3.1,2.4,5.6,5.5,5.6l0,0c0.1,0,0.2,0,0.4,0c3.7,0,5.9-2.3,5.9-5.6V11L81.5,11z">
   </path>
   <path id="Path_1217" class="st2" d="M98.5,12.4c-1.3-1-2.8-1.5-4.4-1.4h-5.3v28.1h4.3V28.4H94c1.6,0.1,3.2-0.5,4.5-1.5
			c1.3-1.2,2.1-2.9,2-4.7V17C100.6,15.2,99.9,13.5,98.5,12.4z M95.7,23.8c-0.4,0.4-0.9,0.7-1.4,0.6h-1.1v-9.2h1.2
			c0.5,0,1,0.1,1.3,0.5c0.4,0.7,0.6,1.4,0.5,2.2v3.9C96.2,22.4,96.1,23.2,95.7,23.8L95.7,23.8z">
   </path>
   <path id="Path_1218" class="st2" d="M113.2,10.9h-10.1v28.1h10.1v-3.9h-5.8v-8.8h3.6v-3.9h-3.6v-7.5h5.7V10.9z">
   </path>
   <path id="Path_1219" class="st2" d="M122.9,39.1h4.3V28.3c0.1-0.9-0.2-1.8-0.7-2.5c-0.5-0.6-1.2-1.1-2-1.2c0.8-0.3,1.5-0.8,2-1.4
			c0.5-0.8,0.8-1.7,0.7-2.6V17c0.1-1.6-0.5-3.2-1.7-4.4c-1.3-1.1-3-1.7-4.7-1.7h-5.2v28.1h4.3V26.6h1.6c1,0,1.5,1.1,1.5,2.5V39.1z
			 M122.8,20.6c0,0.6-0.2,1.1-0.6,1.6c-0.4,0.4-0.9,0.6-1.4,0.6h-0.9v-7.6h0.9c0.9,0,1.2,0.2,1.4,0.5c0.5,0.6,0.7,1.4,0.6,2.2V20.6z
			">
   </path>
   <path id="Path_1220" class="st2" d="M140.6,11l-3.4,10.1L133.8,11H130v28.1h4.1c0-5.8,0.1-17.6,0.1-17.6l2.2,7.2h1.5l2.2-7.2
			c0,0,0.1,11.8,0.1,17.6h4.1V11H140.6z">
   </path>
   <path id="Path_1221" class="st2" d="M157.7,10.9h-10.1v28.1h10.1v-3.9h-5.8v-8.8h3.6v-3.9H152v-7.5h5.7V10.9z">
   </path>
   <path id="Path_1222" class="st2" d="M171.4,11h-11.7v3.9h3.7v24.2h4.4V14.9h3.7L171.4,11L171.4,11z">
   </path>
   <path id="Path_1223" class="st2" d="M181,39.1h4.3V28.3c0.1-0.9-0.2-1.8-0.7-2.5c-0.5-0.6-1.2-1.1-2-1.2c0.8-0.3,1.5-0.8,2-1.4
			c0.5-0.8,0.8-1.7,0.7-2.6V17c0.1-1.6-0.5-3.2-1.7-4.4c-1.3-1.1-3-1.7-4.7-1.7h-5.2v28.1h4.3V26.6h1.6c1,0,1.5,1.1,1.5,2.5V39.1z
			 M180.8,20.6c0,0.6-0.2,1.1-0.6,1.6c-0.4,0.4-0.9,0.6-1.4,0.6h-0.9v-7.6h0.9c0.9,0,1.2,0.2,1.4,0.5c0.5,0.6,0.7,1.4,0.6,2.2V20.6z
			">
   </path>
   <rect id="Rectangle_24504" x="188.1" y="11" class="st2" width="4.3" height="28.1">
   </rect>
   <path id="Path_1224" class="st2" d="M202.6,33.2c0.1,0.8-0.5,1.5-1.3,1.6c-0.1,0-0.1,0-0.2,0c-1.2,0-1.5-1.2-1.5-2.3V17.4
			c0-1,0.3-2.3,1.5-2.3c1,0,1.5,1.1,1.5,1.7v2.5h4.2v-2.7c0.1-3-2.1-5.5-5.1-5.7c-0.2,0-0.4,0-0.6,0c-3.1-0.2-5.7,2.2-5.8,5.2l0,0
			c0,0.1,0,0.3,0,0.4v16.8c-0.1,3.1,2.4,5.6,5.4,5.6l0,0c0.1,0,0.3,0,0.4,0c3.7,0,5.7-2.3,5.7-5.6v-2.9h-4.2L202.6,33.2z">
   </path>
   <g id="Group_1568">
    <path id="Path_1225" class="st2" d="M65.2,11c0.1,0,0.1,0,0.2,0c0,0,0.1,0,0.1,0H65.2z">
    </path>
    <path id="Path_1226" class="st2" d="M65.7,39c-0.1,0-0.1,0-0.2,0s-0.1,0-0.1,0H65.7z">
    </path>
    <path id="Path_1227" class="st2" d="M68.2,25L68.2,25c-1.8-2.5-3.9-4.7-4.4-6.8c-0.1-0.6-0.2-1.2-0.1-1.8
				c0.1-0.7,0.4-1.5,1.5-1.5c1.2,0,1.6,0.9,1.6,2.4v2.2h4.3v-2.9c0-3.6-2.5-5.6-5.8-5.6c-1.8-0.1-3.6,0.8-4.7,2.2
				c-0.3,0.6-1,1.4-1,4.3c0,2.7,1.4,5.3,3,7.5l0,0c1.8,2.5,3.9,4.7,4.4,6.8c0.1,0.6,0.2,1.2,0.1,1.8c-0.1,0.7-0.4,1.5-1.5,1.5
				c-1.2,0-1.6-0.9-1.6-2.4v-2.2h-4.3v2.9c0,3.6,2.5,5.6,5.8,5.6c1.8,0.1,3.6-0.8,4.7-2.2c0.3-0.6,1-1.4,1-4.3
				C71.2,29.8,69.8,27.2,68.2,25z">
    </path>
   </g>
   <g id="Group_1569">
    <path id="Path_1228" class="st2" d="M214.6,11c0.1,0,0.1,0,0.2,0c0,0,0.1,0,0.1,0H214.6z">
    </path>
    <path id="Path_1229" class="st2" d="M215.1,39c-0.1,0-0.1,0-0.2,0s-0.1,0-0.1,0H215.1z">
    </path>
    <path id="Path_1230" class="st2" d="M217.6,25L217.6,25c-1.8-2.5-3.9-4.7-4.4-6.8c-0.1-0.6-0.2-1.2-0.1-1.8
				c0.1-0.7,0.4-1.5,1.5-1.5c1.2,0,1.6,0.9,1.6,2.4v2.2h4.3v-2.9c0-3.6-2.5-5.6-5.8-5.6c-1.8-0.1-3.6,0.8-4.7,2.2
				c-0.3,0.6-1,1.4-1,4.3c0,2.7,1.4,5.3,3,7.5l0,0c1.8,2.5,3.9,4.7,4.4,6.8c0.1,0.6,0.2,1.2,0.1,1.8c-0.1,0.7-0.4,1.5-1.5,1.5
				c-1.2,0-1.6-0.9-1.6-2.4v-2.2h-4.3v2.9c0,3.6,2.5,5.6,5.8,5.6c1.8,0.1,3.6-0.8,4.7-2.2c0.3-0.6,1-1.4,1-4.3
				C220.6,29.8,219.2,27.2,217.6,25z">
    </path>
   </g>
  </g>
 </g>
</svg>