<svg version="1.1" id="Layer_1" xmlns:x="ns_extend;" xmlns:i="ns_ai;" xmlns:graph="ns_graphs;" xmlns="http://www.w3.org/2000/svg" xmlns:xlink="http://www.w3.org/1999/xlink" x="0px" y="0px" viewBox="0 0 559 76" style="enable-background:new 0 0 559 76;" xml:space="preserve">
 <style type="text/css">
  .st0{fill:#FFFFFF;filter:url(#Adobe_OpacityMaskFilter);}
	.st1{mask:url(#mask0_209_767_2_);}
	.st2{fill-rule:evenodd;clip-rule:evenodd;fill:#0C70F2;}
	.st3{fill:#070E1A;}
 </style>
 <metadata>
  <sfw xmlns="ns_sfw;">
   <slices>
   </slices>
   <sliceSourceBounds bottomLeftOrigin="true" height="75.9" width="558.8" x="0" y="0.1">
   </sliceSourceBounds>
  </sfw>
 </metadata>
 <g>
  <defs>
   <filter id="Adobe_OpacityMaskFilter" filterUnits="userSpaceOnUse" x="0" y="0" width="80.5" height="60.1">
    <feColorMatrix type="matrix" values="1 0 0 0 0  0 1 0 0 0  0 0 1 0 0  0 0 0 1 0">
    </feColorMatrix>
   </filter>
  </defs>
  <mask maskUnits="userSpaceOnUse" x="0" y="0" width="80.5" height="60.1" id="mask0_209_767_2_">
   <path class="st0" d="M80.5,0H0v60.1h80.5V0z">
   </path>
  </mask>
  <g class="st1">
   <path class="st2" d="M55.2,58.4c0.1,0.9-0.6,1.7-1.6,1.7H30.2c-0.9,0-1.6-0.7-1.6-1.6V25.7c0-0.8-0.6-1.5-1.5-1.7
			c-4.9-0.8-20.8-4.7-27-21.9C-0.3,1.1,0.5,0,1.5,0h17.8C34,0.6,45,10,49.5,22.8l0,0C53.2,33.4,54.8,52.6,55.2,58.4z">
   </path>
   <path class="st2" d="M80.4,1.9c-5.8,16.7-17.7,20.5-24.6,22c-0.7,0.1-1.4-0.3-1.6-1C52.1,15,49,10.8,45,7.1
			c-0.7-0.6-0.6-1.7,0.1-2.2C49.8,1.9,55.5,0,62.7,0v0h16.4C80.1,0,80.8,1,80.4,1.9z">
   </path>
  </g>
  <path class="st3" d="M108.6,11.4V2.8h45.6v8.7h-17.7v48.4h-10.3V11.4H108.6L108.6,11.4z">
  </path>
  <path class="st3" d="M156.5,59.9V17h9.8v7.1h0.4c0.8-2.5,2.1-4.4,4-5.7c1.9-1.4,4.1-2,6.6-2c0.6,0,1.2,0,1.9,0.1
		c0.7,0,1.3,0.1,1.8,0.2V26c-0.4-0.1-1.1-0.3-2-0.4c-0.9-0.1-1.8-0.2-2.6-0.2c-1.8,0-3.5,0.4-5,1.2c-1.4,0.8-2.6,1.9-3.4,3.3
		c-0.8,1.4-1.3,3-1.3,4.8v25.2L156.5,59.9L156.5,59.9z">
  </path>
  <path class="st3" d="M186,59.9V17h10.1v42.8H186z M191.1,11c-1.6,0-3-0.5-4.1-1.6c-1.2-1.1-1.7-2.4-1.7-3.9c0-1.5,0.6-2.8,1.7-3.9
		c1.2-1.1,2.5-1.6,4.1-1.6c1.6,0,3,0.5,4.1,1.6c1.2,1.1,1.7,2.4,1.7,3.9c0,1.5-0.6,2.8-1.7,3.9C194.1,10.4,192.7,11,191.1,11z">
  </path>
  <path class="st3" d="M204.9,75.9V17h9.9v7.1h0.6c0.5-1,1.3-2.1,2.2-3.3c0.9-1.2,2.2-2.2,3.8-3c1.6-0.9,3.7-1.3,6.2-1.3
		c3.3,0,6.3,0.8,9,2.5c2.7,1.7,4.8,4.2,6.4,7.4c1.6,3.3,2.4,7.3,2.4,12c0,4.8-0.8,8.7-2.3,12c-1.5,3.3-3.6,5.8-6.3,7.5
		c-2.7,1.7-5.7,2.6-9,2.6c-2.5,0-4.5-0.4-6.1-1.2c-1.6-0.8-2.9-1.8-3.9-3c-1-1.2-1.7-2.3-2.3-3.3H215v22.8L204.9,75.9L204.9,75.9z
		 M214.8,38.5c0,2.8,0.4,5.2,1.2,7.3c0.8,2.1,1.9,3.7,3.4,4.9c1.5,1.2,3.3,1.7,5.5,1.7s4.1-0.6,5.6-1.8c1.5-1.2,2.6-2.9,3.4-4.9
		c0.8-2.1,1.2-4.5,1.2-7.2c0-2.7-0.4-5-1.1-7.1c-0.8-2.1-1.9-3.7-3.4-4.9c-1.5-1.2-3.4-1.8-5.6-1.8s-4,0.6-5.5,1.7
		c-1.5,1.1-2.7,2.7-3.4,4.8C215.2,33.3,214.8,35.7,214.8,38.5L214.8,38.5z">
  </path>
  <path class="st3" d="M262.6,2.8v57.1h-10.1V2.8H262.6z">
  </path>
  <path class="st3" d="M290.3,60.7c-4.3,0-8-0.9-11.1-2.7c-3.1-1.8-5.5-4.4-7.2-7.6c-1.7-3.3-2.5-7.2-2.5-11.7s0.8-8.3,2.5-11.6
		c1.7-3.3,4.1-6,7.1-7.8c3-1.9,6.6-2.8,10.7-2.8c2.6,0,5.1,0.4,7.5,1.3c2.4,0.8,4.4,2.1,6.2,3.9c1.8,1.8,3.3,4,4.3,6.8
		c1,2.7,1.6,6,1.6,9.7v3.1h-35.1v-6.8h25.4c0-1.9-0.4-3.7-1.3-5.2c-0.8-1.5-2-2.7-3.4-3.6c-1.5-0.9-3.1-1.3-5.1-1.3
		c-2.1,0-3.9,0.5-5.4,1.5c-1.6,1-2.8,2.3-3.7,3.9c-0.9,1.6-1.3,3.4-1.3,5.3V41c0,2.5,0.5,4.6,1.4,6.4c0.9,1.8,2.2,3.1,3.8,4.1
		c1.6,0.9,3.6,1.4,5.7,1.4c1.5,0,2.8-0.2,4-0.6c1.2-0.4,2.2-1.1,3.1-1.9c0.9-0.8,1.5-1.8,2-3l9.4,1.1c-0.6,2.5-1.7,4.7-3.4,6.5
		c-1.7,1.8-3.8,3.3-6.4,4.3C296.6,60.2,293.7,60.7,290.3,60.7L290.3,60.7z">
  </path>
  <path class="st3" d="M346.7,59.9L330.6,2.8h11.1l10.3,42h0.5l11-42h10.1l11,42h0.5l10.3-42h11.1l-16.1,57.1h-10.2l-11.4-40.1h-0.4
		l-11.5,40.1H346.7z">
  </path>
  <path class="st3" d="M421.9,34.8v25.1h-10.1V2.8h9.9v21.6h0.5c1-2.4,2.6-4.3,4.7-5.7c2.1-1.4,4.8-2.1,8.1-2.1c3,0,5.6,0.6,7.8,1.9
		c2.2,1.2,3.9,3.1,5.1,5.5c1.2,2.4,1.8,5.3,1.8,8.8v27.3h-10.1V34.2c0-2.9-0.7-5.1-2.2-6.7c-1.5-1.6-3.5-2.4-6.2-2.4
		c-1.8,0-3.4,0.4-4.8,1.2c-1.4,0.8-2.5,1.9-3.3,3.3C422.3,31,421.9,32.7,421.9,34.8L421.9,34.8z">
  </path>
  <path class="st3" d="M470.7,60.7c-2.7,0-5.2-0.5-7.3-1.5c-2.2-1-3.9-2.4-5.1-4.4c-1.2-1.9-1.9-4.3-1.9-7.1c0-2.4,0.4-4.4,1.3-6
		c0.9-1.6,2.1-2.8,3.7-3.8c1.5-0.9,3.3-1.7,5.2-2.1c2-0.5,4-0.9,6.1-1.1c2.5-0.3,4.5-0.5,6.1-0.7c1.6-0.2,2.7-0.6,3.4-1
		c0.7-0.5,1.1-1.2,1.1-2.1v-0.2c0-2.1-0.6-3.7-1.9-4.9c-1.2-1.2-3-1.7-5.4-1.7c-2.5,0-4.4,0.5-5.9,1.6c-1.4,1.1-2.4,2.4-2.9,3.8
		l-9.4-1.3c0.7-2.6,2-4.8,3.7-6.5c1.7-1.8,3.8-3.1,6.3-4c2.5-0.9,5.2-1.3,8.2-1.3c2.1,0,4.1,0.2,6.2,0.7c2,0.5,3.9,1.3,5.6,2.4
		c1.7,1.1,3,2.6,4.1,4.5c1,1.9,1.6,4.3,1.6,7.1v28.7h-9.7V54h-0.3c-0.6,1.2-1.5,2.3-2.6,3.3c-1.1,1-2.5,1.9-4.2,2.5
		C474.9,60.4,472.9,60.8,470.7,60.7L470.7,60.7z M473.3,53.3c2,0,3.8-0.4,5.3-1.2c1.5-0.8,2.6-1.9,3.4-3.2c0.8-1.3,1.2-2.8,1.2-4.4
		v-5c-0.3,0.3-0.9,0.5-1.6,0.7c-0.7,0.2-1.6,0.4-2.5,0.6c-0.9,0.2-1.9,0.3-2.8,0.4c-0.9,0.1-1.7,0.2-2.4,0.3c-1.5,0.2-2.9,0.5-4,1
		c-1.2,0.5-2.1,1.1-2.8,2c-0.7,0.8-1,1.9-1,3.2c0,1.9,0.7,3.3,2,4.2C469.5,52.9,471.2,53.3,473.3,53.3L473.3,53.3z">
  </path>
  <path class="st3" d="M512,2.8v57.1h-10.1V2.8H512z">
  </path>
  <path class="st3" d="M539.8,60.7c-4.3,0-8-0.9-11.1-2.7c-3.1-1.8-5.5-4.4-7.2-7.6c-1.7-3.3-2.5-7.2-2.5-11.7s0.8-8.3,2.5-11.6
		c1.7-3.3,4.1-6,7.1-7.8c3-1.9,6.6-2.8,10.7-2.8c2.6,0,5.1,0.4,7.5,1.3c2.4,0.8,4.4,2.1,6.2,3.9c1.8,1.8,3.3,4,4.3,6.8
		c1,2.7,1.6,6,1.6,9.7v3.1h-35.1v-6.8h25.4c0-1.9-0.4-3.7-1.3-5.2c-0.8-1.5-2-2.7-3.4-3.6c-1.5-0.9-3.1-1.3-5.1-1.3
		c-2.1,0-3.9,0.5-5.4,1.5c-1.6,1-2.8,2.3-3.7,3.9c-0.9,1.6-1.3,3.4-1.3,5.3V41c0,2.5,0.5,4.6,1.4,6.4c0.9,1.8,2.2,3.1,3.8,4.1
		c1.6,0.9,3.6,1.4,5.7,1.4c1.5,0,2.8-0.2,4-0.6c1.2-0.4,2.2-1.1,3.1-1.9c0.9-0.8,1.5-1.8,2-3l9.4,1.1c-0.6,2.5-1.7,4.7-3.4,6.5
		c-1.7,1.8-3.8,3.3-6.4,4.3C546.1,60.2,543.1,60.7,539.8,60.7L539.8,60.7z">
  </path>
 </g>
</svg>